<svg xmlns="http://www.w3.org/2000/svg" viewBox="0 0 129 26" aria-label="BNNVARA-icoon" class="sc-1rx0c7x-0 bQFRxE white"><g fill="#E60000"><polygon points="0 16.4210526 27.0157068 16.4210526 27.0157068 9.57894737 0 9.57894737"></polygon><polygon points="0 6.84210526 27.0157068 6.84210526 27.0157068 0 0 0"></polygon><polygon points="0 26 27.0157068 26 27.0157068 19.1578947 0 19.1578947"></polygon></g><path fill="#ffffff" d="M40.4148032,14.8162297 C40.4148032,13.5368828 40.164341,13.2655287 38.9891664,13.2655287 L37.0818432,13.2655287 L37.0818432,16.3862866 L39.0084043,16.3862866 C40.164341,16.3862866 40.4148032,16.0953905 40.4148032,14.8162297 M39.0084043,8.24547851 L37.0818432,8.24547851 L37.0818432,10.8814097 L39.04688,10.8814097 C39.9523545,10.8814097 40.2414774,10.6683092 40.2414774,9.56335102 C40.2414774,8.49747673 39.9523545,8.24547851 39.0084043,8.24547851 M44.5759162,15.6690036 C44.5759162,18.421442 43.0925659,19.1578947 39.7597909,19.1578947 C36.6003416,19.1578947 34.9821413,19.138725 33.0942408,19.0028619 L33.0942408,5.62871709 C34.8088155,5.49304006 36.2919808,5.47368421 39.1240165,5.47368421 C42.8228658,5.47368421 44.2292647,6.21013691 44.2292647,8.96257536 C44.2292647,10.8233421 43.3430281,11.7535394 41.3202776,11.9087584 L41.3202776,12.2188241 C43.7283403,12.3932129 44.5759162,13.5949503 44.5759162,15.6690036"></path><path fill="#ffffff" d="M45.9267016,6.88675129 C45.9267016,5.96358123 46.4376904,5.47368421 47.4006061,5.47368421 L49.1692538,5.47368421 C50.0534833,5.47368421 50.2893533,5.85051416 50.8199665,6.66061714 L53.6498405,10.9374471 C54.1410162,11.7287357 54.4948212,12.6707201 54.8091888,13.6881429 L55.1629938,13.6128854 C55.0254344,12.7085297 54.9074994,11.691107 54.9074994,10.7869322 L54.887875,5.47368421 L58.7591623,5.47368421 L58.7591623,17.060798 C58.7591623,17.9837872 58.2483622,18.4736842 57.2854465,18.4736842 L55.5166101,18.4736842 C54.6127562,18.4736842 54.3376374,18.0027825 53.8660861,17.2867513 L50.9575258,12.7837872 C50.4269127,11.9172411 50.1910427,11.0316998 49.9553613,10.0520867 L49.5819319,10.1273441 C49.7391157,11.0316998 49.817802,12.1055656 49.817802,12.9722926 L49.817802,18.4736842 L45.9267016,18.4736842 L45.9267016,6.88675129 Z"></path><path fill="#ffffff" d="M60.7853403,6.88675129 C60.7853403,5.96358123 61.2963216,5.47368421 62.2592232,5.47368421 L64.0278448,5.47368421 C64.9120613,5.47368421 65.1479279,5.85051416 65.6785332,6.66061714 L68.5083657,10.9374471 C68.9995342,11.7287357 69.353334,12.6707201 69.6676969,13.6881429 L70.021308,13.6128854 C69.8839393,12.7085297 69.7660061,11.691107 69.7660061,10.7869322 L69.746382,5.47368421 L73.617801,5.47368421 L73.617801,17.060798 C73.617801,17.9837872 73.1068198,18.4736842 72.1437295,18.4736842 L70.3751078,18.4736842 C69.4712672,18.4736842 69.1961525,18.0027825 68.7244194,17.2867513 L65.8160906,12.7837872 C65.2854852,11.9172411 65.0498074,11.0316998 64.8139409,10.0520867 L64.4405169,10.1273441 C64.5976984,11.0316998 64.6761948,12.1055656 64.6761948,12.9722926 L64.6761948,18.4736842 L60.7853403,18.4736842 L60.7853403,6.88675129 Z"></path><path fill="#ffffff" d="M83.8940414,17.381004 C83.7250009,18.0404112 83.1987566,18.4736842 82.5038326,18.4736842 L78.9150156,18.4736842 C78.2200916,18.4736842 77.6938472,18.0404112 77.5248068,17.381004 L74.2931937,5.47368421 L78.4831236,5.47368421 L80.2303559,13.9330914 C80.3243474,14.4041741 80.3995767,14.9505142 80.4746256,15.4214159 L80.9442225,15.4214159 C81.0006896,14.9505142 81.0945007,14.4041741 81.1886727,13.9330914 L82.9357246,5.47368421 L87.1256545,5.47368421 L83.8940414,17.381004 Z"></path><path fill="#ffffff" d="M95.2188374,13.2924986 L94.4588644,10.0140961 C94.3640046,9.48657038 94.2310185,8.86497283 94.1928921,8.33744708 L93.5659053,8.33744708 C93.5091719,8.86497283 93.4139472,9.48657038 93.299933,10.0140961 L92.5401425,13.2924986 L95.2188374,13.2924986 Z M95.8460066,15.967756 L91.9131557,15.967756 L91.3241128,18.4736842 L87.1256545,18.4736842 L90.5261959,6.5287357 C90.7162804,5.88814288 91.248225,5.47368421 91.9131557,5.47368421 L95.8460066,5.47368421 C96.5107549,5.47368421 97.0618539,5.88814288 97.2327839,6.5287357 L100.633508,18.4736842 L96.4348671,18.4736842 L95.8460066,15.967756 Z"></path><path fill="#ffffff" d="M109.337277,9.68944257 C109.337277,8.51945862 109.003837,8.22219246 107.729576,8.22219246 L106.16085,8.22219246 L106.16085,11.1565144 L107.729576,11.1565144 C109.003837,11.1565144 109.337277,10.8594265 109.337277,9.68944257 Z M114.141361,18.4736842 L109.709877,18.4736842 L108.788448,14.6666445 C108.631613,14.0351991 108.337336,13.8122941 107.572741,13.8122941 L106.16085,13.8122941 L106.16085,18.4736842 L101.984293,18.4736842 L101.984293,5.65931952 C103.827528,5.49222991 105.082397,5.47368421 107.827481,5.47368421 C111.866971,5.47368421 113.611925,6.30931061 113.611925,9.09508858 C113.611925,10.6365215 112.827562,11.9923191 110.337406,12.2523155 L110.337406,12.5494033 C111.259023,12.735217 112.611984,13.0879419 113.062909,14.6108291 L114.141361,18.4736842 Z"></path><path fill="#ffffff" d="M123.585439,13.2924986 L122.825456,10.0140961 C122.730412,9.48657038 122.597424,8.86497283 122.55948,8.33744708 L121.932484,8.33744708 C121.875568,8.86497283 121.780524,9.48657038 121.666509,10.0140961 L120.906525,13.2924986 L123.585439,13.2924986 Z M124.212434,15.967756 L120.279712,15.967756 L119.690662,18.4736842 L115.492147,18.4736842 L118.892734,6.5287357 C119.082639,5.88814288 119.61459,5.47368421 120.279712,5.47368421 L124.212434,5.47368421 C124.877374,5.47368421 125.428298,5.88814288 125.59923,6.5287357 L129,18.4736842 L124.801303,18.4736842 L124.212434,15.967756 Z"></path></svg>
