<svg
   xmlns:dc="http://purl.org/dc/elements/1.1/"
   xmlns:cc="http://creativecommons.org/ns#"
   xmlns:rdf="http://www.w3.org/1999/02/22-rdf-syntax-ns#"
   xmlns:svg="http://www.w3.org/2000/svg"
   xmlns="http://www.w3.org/2000/svg"
   xmlns:sodipodi="http://sodipodi.sourceforge.net/DTD/sodipodi-0.dtd"
   xmlns:inkscape="http://www.inkscape.org/namespaces/inkscape"
   width="1000"
   height="1000"
   id="svg5906"
   version="1.1"
   inkscape:version="0.48.2 r9819"
   sodipodi:docname="New document 9">
  <defs
     id="defs5908" />
  <sodipodi:namedview
     id="base"
     pagecolor="#ffffff"
     bordercolor="#666666"
     borderopacity="1.0"
     inkscape:pageopacity="0.0"
     inkscape:pageshadow="2"
     inkscape:zoom="0.49497475"
     inkscape:cx="13.915351"
     inkscape:cy="188.68287"
     inkscape:document-units="px"
     inkscape:current-layer="layer1"
     showgrid="false"
     fit-margin-left="0.5"
     fit-margin-bottom="0.5"
     fit-margin-top="0.5"
     fit-margin-right="0.5"
     inkscape:window-width="1208"
     inkscape:window-height="1031"
     inkscape:window-x="705"
     inkscape:window-y="-17"
     inkscape:window-maximized="0">
    <inkscape:grid
       type="xygrid"
       id="grid5925"
       empspacing="5"
       visible="true"
       enabled="true"
       snapvisiblegridlinesonly="true" />
  </sodipodi:namedview>
  <metadata
     id="metadata5911">
    <rdf:RDF>
      <cc:Work
         rdf:about="">
        <dc:format>image/svg+xml</dc:format>
        <dc:type
           rdf:resource="http://purl.org/dc/dcmitype/StillImage" />
        <dc:title></dc:title>
      </cc:Work>
    </rdf:RDF>
  </metadata>
  <g
     inkscape:label="Layer 1"
     inkscape:groupmode="layer"
     id="layer1"
     transform="translate(-920.17057,238.32287)">
    <path
       style="fill:#ff6d00;fill-opacity:1;stroke:none"
       d="m 944.70722,203.82729 417.61358,-417.6136 c 32.0487,-32.0487 83.6509,-32.0488 115.6996,0 l 417.6137,417.61364 c 32.0487,32.04878 32.0486,83.65086 -10e-5,115.69956 l -417.6136,417.61363 c -32.0487,32.04883 -83.6509,32.04883 -115.6996,5e-5 L 944.70716,319.52693 c -32.04879,-32.04878 -32.04879,-83.65081 6e-5,-115.69964 z"
       id="rect5943"
       inkscape:connector-curvature="0" />
    <path
       sodipodi:nodetypes="cccccccccccccccccccc"
       inkscape:connector-curvature="0"
       id="path5933"
       d="m 1004.633,258.62262 c 0,-22.37243 13.985,-40.30489 19.0603,-45.81169 l 36.6577,-36.82481 c 12.8323,-12.63624 31.6828,-20.94133 48.5286,-20.94129 22.2043,4e-5 36.2574,10.30614 55.4254,29.42651 l 57.8499,57.84982 c 7.5085,7.66223 8.7108,11.97953 8.7778,18.14072 0,11.044 -9.1982,23.57463 -23.2402,23.57465 -9.9982,-9e-5 -16.5569,-8.31842 -24.3271,-15.71648 l -58.9783,-58.97832 c -3.1178,-3.30313 -8.2899,-7.56564 -16.0091,-7.56568 -6.4867,1e-4 -12.8228,4.05711 -19.0602,10.28259 l -31.224,31.22387 c -6.6319,7.45703 -10.4854,19.05871 10e-5,29.55184 l 66.8575,66.85748 c 6.6302,6.76793 8.8405,11.39584 8.8405,18.24524 0,11.79192 -10.2162,23.49104 -23.4912,23.49097 -7.4845,9e-5 -13.6723,-4.74643 -22.5713,-13.87718 l -63.4091,-63.40909 c -11.8225,-12.24332 -19.6874,-27.39828 -19.6873,-45.51911 z"
       style="fill:#ffffff;stroke:none" />
    <path
       style="fill:#ffffff;stroke:none"
       d="m 1265.201,-2.0611385 c -17.1318,-0.036553 -34.3329,7.707017 -50.0333,23.4074265 l -29.9029,29.902988 c -34.0187,34.018463 -26.4762,72.829884 -5.5594,93.746744 l 103.6949,103.6949 c 13.8198,13.81973 25.1039,10.41689 33.4727,2.04815 9.6788,-9.67895 11.4546,-21.14029 -1.112,-33.70669 l -22.8806,-22.93928 c 0,0 9.2581,-0.97652 17.0874,-9.1289 l 36.5742,-36.51558 c 22.4539,-22.45383 33.6868,-61.815198 2.4576,-93.044525 L 1314.8247,21.229251 C 1299.3889,5.7932517 1282.333,-2.0245855 1265.201,-2.0611385 z m 0.5267,46.9904095 c 5.5489,0.190518 11.6171,3.131914 18.6089,10.123712 l 27.7965,27.79632 c 13.1572,13.157164 10.9353,25.228807 0,36.164477 l -29.435,29.43484 c -12.3671,12.36719 -25.6922,10.00416 -35.5793,0.11703 l -30.4296,-30.37113 c -8.9808,-8.98072 -12.1455,-21.444258 0,-33.58966 l 29.6104,-29.551877 c 6.0679,-6.067973 12.2939,-10.368666 19.4281,-10.123712 z"
       id="path5935"
       inkscape:connector-curvature="0" />
    <path
       style="fill:#ffffff;stroke:none"
       d="m 1419.6316,-156.43312 c -17.132,-0.0366 -34.3329,7.70702 -50.0335,23.40743 l -29.9029,29.90299 c -34.0185,34.018459 -26.4762,72.829901 -5.5592,93.7467406 l 39.3245,39.3829954 c 25.7006,25.700831 63.6476,27.875512 90.9377,0.585186 l 36.5156,-36.515586 c 22.4539,-22.453827 33.7456,-61.815194 2.5164,-93.044522 l -34.1749,-34.174844 c -15.436,-15.436 -32.4917,-23.25384 -49.6237,-23.29039 z m 0.4681,46.99041 c 5.5489,0.19052 11.6756,3.0734 18.6675,10.065194 l 27.7377,27.79632 c 13.1574,13.157164 10.9357,25.228805 0,36.164474 l -29.4348,29.493358 c -12.3672,12.3671923 -25.692,10.0041658 -35.5793,0.1170372 l -30.371,-30.4296552 c -8.9808,-8.980737 -12.1455,-21.385737 0,-33.531139 l 29.5518,-29.610395 c 6.0679,-6.067974 12.2939,-10.310144 19.4281,-10.065194 z"
       id="path5939"
       inkscape:connector-curvature="0" />
  </g>
</svg>
