<svg id="Laag_2" data-name="Laag 2" xmlns="http://www.w3.org/2000/svg" viewBox="0 0 146.54 122.86"><defs><style>.cls-1{fill:none;stroke:#1d1d1b;stroke-miterlimit:10;}.cls-2{fill:#1d1d1b;}</style></defs><path class="cls-1" d="M326.05,106.08a160.77,160.77,0,0,1-19.49,3.73c-6.66.85-10.3,1.31-15.59,1.18-5.66-.13-7.2-.79-12.37-.33-7.52.66-10.62,2.63-12.21,3.89a16.75,16.75,0,0,0-3.73,4.24l-7,6.95-7.45,8.14-2.88,3.89v5.09l-3.06,2.37-1.69,1.7-.51,4.23.51,3.56-6.1,6.1-2.71,4.75.84,3.39,4.92,6.13.85,3.73,1.69,10,5.26,7.46v-9.66l-.17-4.05a7.29,7.29,0,0,1,0-2,9.26,9.26,0,0,1,3.39-5.6,14.05,14.05,0,0,1,2.88-1.86,14.51,14.51,0,0,1,2.71-1.19,11.06,11.06,0,0,1,5.76,0c1.69.4,3.88.92,5.26,2.71a30.52,30.52,0,0,1,.82,5.79c.4,4.65.65,10.81,0,13.37-.2.85-.42,1.53-.17,1.69.7.44,4.72-3.48,6.95-8.47a49,49,0,0,0,1.69-6.59c.82-3.83,1.58-8,1.7-9,4.21-1.5,5.6-.68,6.1-.17,2.21,2.21-1.37,9.14-3.39,13.05a30.57,30.57,0,0,1-5.25,7.8c-2.35,2.47-4.42,4.64-7.8,5.76-1.9.63-3.39.66-5.76,2a10.45,10.45,0,0,0-3.22,2.71,6.62,6.62,0,0,0-1.69,4.57c.18,2.07,6.55,5.46,7.11,6,2.28,2.09,8-3.6,8.48-4.44,19.21-23,27.41-32.2,29.32-33.53a4.33,4.33,0,0,0,1.7-1.89c.47-1.17.07-2.08,0-4.92,0-1.35-.08-1.48,0-1.69.57-1.6,3-1.89,4.74-2.38,4.52-1.25,3.83-3.62,9.15-6.1,2.08-1,5.93-2.76,9.83-1.35.83.3,3.33,1.19,4.24,3.56s-.12,5.55-2.71,7.79l-12.88,14.43" transform="translate(-202.86 -105.6)"/><path class="cls-1" d="M330.11,161.94l-4.87,2.95a78.42,78.42,0,0,0-12.16,8c-3.28,2.64-5.8,5.09-18.21,19.28-7.68,8.78-11.53,13.16-12.55,14.41-5,6.16-6.43,8.33-10.17,11.52a37.24,37.24,0,0,1-13.89,8.14c-3.2,1-11.55,3.48-19.33-.34-4.72-2.33-8.08-6.42-9.49-8.14-3.43-4.19-3.72-6.53-7.28-8.81a12.71,12.71,0,0,0-8.65-2.2,10.92,10.92,0,0,0-8,5.08c-1.17,2.1-1,3.91-1.19,3.9-.48,0-2.54-7.59,1.19-11.87,3.87-4.44,12.21-3.31,12.88-3.22,2.92.43,3.69,1.32,4.74.68,3-1.81,1.11-11.51-3-17.62-1.16-1.71-3-4.34-6.27-5.6-2-.77-3.53-.63-3.56-1,0-.72,5.17-3,9.83-1.36,4.36,1.53,6.3,5.8,8,9.49a25.86,25.86,0,0,1,2.54,10.68c0,4-1,5.78,0,9.49a17,17,0,0,0,2.54,5.25,20.13,20.13,0,0,0,9,8,19.66,19.66,0,0,0,14.06.17,28.28,28.28,0,0,0,5.77-3,57.85,57.85,0,0,0,8.34-6.28l31.17-35.68" transform="translate(-202.86 -105.6)"/><line class="cls-1" x1="42.35" y1="74.89" x2="35.8" y2="74.6"/><line class="cls-1" x1="71.66" y1="74.74" x2="63.57" y2="74.6"/><path class="cls-1" d="M277.84,212.15a16.36,16.36,0,0,0,4.48,1.39c12.33,1.85,23.9-11.77,27.29-15.77,2.26-2.66,1.8-2.58,3.9-4.91,5.49-6.11,9-7,14.91-13.56,2.65-2.91,1.86-2.61,3.56-4.24,1.22-1.16,7.09-6.76,13.73-8.64a4.39,4.39,0,0,0,2.55-1.53c1.16-1.63.45-4,.16-4.91-1.68-5.57-9.21-8.45-10.67-9" transform="translate(-202.86 -105.6)"/><line class="cls-1" x1="79.47" y1="65.57" x2="99.74" y2="59.98"/><path class="cls-1" d="M315.14,142.18A68,68,0,0,1,348,136.57" transform="translate(-202.86 -105.6)"/><path class="cls-2" d="M272.13,159.81a5.43,5.43,0,0,0,2.4,0,22.37,22.37,0,0,0,5.18-4.23c1.66-2.25,1.46-2.4,2.48-3.64a23,23,0,0,1,3.72-3.36,20.31,20.31,0,0,1,4.66-3.2,10,10,0,0,1,3.94-1,20.12,20.12,0,0,0,3-.08,6.28,6.28,0,0,0,2-.43,7,7,0,0,0,2.47-2.19c1-1.18,1.25-1.88,1.39-1.82s.06,2.06-1.17,3.57c-.85,1.05-1.65,1.16-2,2.26a4.36,4.36,0,0,0-.07,1.89c.05,1.73-1,3.05-2.12,4.45a19.08,19.08,0,0,1-11.81,6.42,50.43,50.43,0,0,1-5.54.22,9.45,9.45,0,0,0-2.11-.08" transform="translate(-202.86 -105.6)"/><ellipse class="cls-1" cx="63.73" cy="61.72" rx="1.21" ry="0.53"/><ellipse class="cls-1" cx="35.75" cy="61.19" rx="1.21" ry="0.53"/></svg>