<svg id="Laag_2" data-name="Laag 2" xmlns="http://www.w3.org/2000/svg" viewBox="0 0 146.54 122.95"><defs><style>.cls-1{fill:none;}.cls-1,.cls-3{stroke:#8caf3d;}.cls-1,.cls-2,.cls-3{stroke-miterlimit:10;}.cls-2{fill:#31692d;stroke:#1d1d1b;}.cls-3{fill:#3d3f36;}.cls-4{fill:#5d8758;}</style></defs><path class="cls-1" d="M209.09,118.44,222,104c2.6-2.24,3.65-5.37,2.71-7.79s-3.4-3.26-4.23-3.56c-3.91-1.4-7.76.39-9.83,1.35-5.32,2.48-4.64,4.86-9.16,6.11-1.74.48-4.16.77-4.74,2.37-.08.21,0,.34,0,1.69.07,2.84.47,3.75,0,4.92A4.27,4.27,0,0,1,195,111c-1.91,1.33-10.11,10.5-29.32,33.53-.47.84-6.2,6.53-8.48,4.45-.56-.51-6.92-3.91-7.11-6a6.67,6.67,0,0,1,1.69-4.58A10.59,10.59,0,0,1,155,135.7c2.37-1.38,3.87-1.41,5.77-2,3.38-1.12,5.45-3.3,7.79-5.77a30.78,30.78,0,0,0,5.26-7.79c2-3.91,5.6-10.85,3.39-13-.51-.51-1.89-1.34-6.1.16-.13,1-.89,5.18-1.7,9-.1.47-.18.83-.34,1.55a31,31,0,0,1-1.35,5,17.82,17.82,0,0,1-.79,1.66,20.48,20.48,0,0,1-3.72,5.11,4.84,4.84,0,0,1-2.17,1.72.32.32,0,0,1-.27,0c-.35-.23.1-1.42.17-1.69.62-2.56.38-8.72,0-13.37a29.45,29.45,0,0,0-.82-5.78c-1.37-1.8-3.57-2.32-5.26-2.72a11.06,11.06,0,0,0-5.76,0,14.81,14.81,0,0,0-2.71,1.19,14.61,14.61,0,0,0-2.88,1.86,9.3,9.3,0,0,0-3.39,5.6,7.36,7.36,0,0,0,0,2.06l.17,4v9.66L135,124.68l-1.69-10-.85-3.73-4.91-6.13-.85-3.39,2.71-4.74,6.1-6.11L135,87.06l.51-4.24,1.7-1.7,3.05-2.37V73.67l2.88-3.9,7.46-8.14,6.95-7a16.38,16.38,0,0,1,3.73-4.23c1.59-1.27,4.68-3.24,12.2-3.9,5.18-.46,6.71.2,12.37.34,5.29.12,8.94-.34,15.59-1.19A160.88,160.88,0,0,0,221,42l22,30.49A69,69,0,0,0,222.28,74,68.09,68.09,0,0,0,210,78.07" transform="translate(-97.76 -41.4)"/><path class="cls-1" d="M225,97.83l-4.86,3a78.69,78.69,0,0,0-12.16,8c-3.29,2.64-5.81,5.09-18.22,19.28-7.68,8.78-11.52,13.16-12.54,14.41-5,6.16-6.43,8.33-10.17,11.52a37.38,37.38,0,0,1-13.9,8.14c-3.2,1-11.54,3.48-19.32-.34-4.73-2.32-8.09-6.42-9.49-8.14-3.43-4.18-3.72-6.53-7.29-8.81a12.69,12.69,0,0,0-8.65-2.2,11,11,0,0,0-8,5.08c-1.17,2.1-1,3.91-1.19,3.9-.48,0-2.54-7.58,1.19-11.86,3.87-4.45,12.22-3.32,12.88-3.22,2.92.43,3.69,1.31,4.75.67,3-1.8,1.1-11.51-3-17.62a13.78,13.78,0,0,0-6.28-5.6c-2-.77-3.53-.63-3.56-1,0-.72,5.17-3,9.84-1.36,4.35,1.53,6.29,5.81,8,9.49a26,26,0,0,1,2.54,10.68c0,4-1,5.79,0,9.49a17.27,17.27,0,0,0,2.55,5.26,20,20,0,0,0,9,8,19.69,19.69,0,0,0,14.07.17,27.75,27.75,0,0,0,5.76-3.05,57.85,57.85,0,0,0,8.34-6.28l31.17-35.67.48-1.16-.1-3.09-.1-2.42.83-1.54-20.28,5.59" transform="translate(-97.76 -41.4)"/><path class="cls-1" d="M140.11,116.38l-6.55-.3Z" transform="translate(-97.76 -41.4)"/><path class="cls-1" d="M161.33,116.08l8.1.15Z" transform="translate(-97.76 -41.4)"/><path class="cls-1" d="M172.74,148a16,16,0,0,0,4.49,1.39c12.32,1.85,23.89-11.77,27.28-15.76,2.27-2.67,1.81-2.59,3.9-4.92,5.49-6.11,9-7,14.92-13.56,2.65-2.91,1.85-2.61,3.56-4.24,1.21-1.15,7.09-6.76,13.73-8.64a4.4,4.4,0,0,0,2.54-1.53c1.16-1.63.45-4,.17-4.91-1.69-5.57-9.22-8.45-10.68-9l10.28-14.43" transform="translate(-97.76 -41.4)"/><path class="cls-2" d="M167,95.7a5.32,5.32,0,0,0,2.41,0,22.54,22.54,0,0,0,5.17-4.22c1.67-2.25,1.47-2.41,2.48-3.65a23.52,23.52,0,0,1,3.72-3.35,20.1,20.1,0,0,1,4.66-3.21,10.22,10.22,0,0,1,3.94-1,21.27,21.27,0,0,0,3-.07,6.48,6.48,0,0,0,2-.44,6.81,6.81,0,0,0,2.48-2.19c1-1.18,1.25-1.88,1.38-1.82s.07,2.06-1.16,3.57c-.86,1-1.66,1.17-2,2.26a4.4,4.4,0,0,0-.07,1.9c.06,1.72-1,3.05-2.11,4.44A19.1,19.1,0,0,1,181,94.32a50.56,50.56,0,0,1-5.54.22,11,11,0,0,0-2.12-.08" transform="translate(-97.76 -41.4)"/><ellipse class="cls-1" cx="63.73" cy="61.81" rx="1.21" ry="0.53"/><ellipse class="cls-3" cx="35.75" cy="61.28" rx="1.21" ry="0.53"/><path class="cls-4" d="M172.74,93.38a3.7,3.7,0,0,0,1.64,0,15.06,15.06,0,0,0,3.54-2.89c1.14-1.53,1-1.64,1.69-2.49a16.52,16.52,0,0,1,2.54-2.29,14.09,14.09,0,0,1,3.19-2.19,6.81,6.81,0,0,1,2.69-.69,15,15,0,0,0,2,0,4.6,4.6,0,0,0,1.35-.3,4.68,4.68,0,0,0,1.69-1.5c.67-.8.85-1.28.95-1.24a3.2,3.2,0,0,1-.8,2.44c-.59.72-1.13.79-1.4,1.54a3.21,3.21,0,0,0-.05,1.3,4.74,4.74,0,0,1-1.44,3,13.07,13.07,0,0,1-8.07,4.39,34.19,34.19,0,0,1-3.78.15,6.25,6.25,0,0,0-1.45,0" transform="translate(-97.76 -41.4)"/><polygon class="cls-3" points="42.52 90.74 37.23 83.1 35.8 74.68 42.35 74.97 42.52 90.74"/><path class="cls-3" d="M169.43,116.23l-8.39-.07.19,4.46a15.33,15.33,0,0,1,.07,5.95c-.28,1.26-.28,2.56-.56,3.82-.11.51-.23,1,0,1.12.45.32,2.1-1.24,2.55-1.67a20.3,20.3,0,0,0,4.82-7.51Z" transform="translate(-97.76 -41.4)"/><path class="cls-1" d="M201.46,100.11l3-1.41A19.75,19.75,0,0,1,209,94.84a21,21,0,0,1,4.14-1.91c.78-.26,1.46-.43,2-.55" transform="translate(-97.76 -41.4)"/></svg>