<svg id="Laag_2" data-name="Laag 2" xmlns="http://www.w3.org/2000/svg" viewBox="0 0 146.54 122.86"><defs><style>.cls-1{fill:none;stroke:#8caf3d;}.cls-1,.cls-2{stroke-miterlimit:10;}.cls-2{fill:#31692d;stroke:#1d1d1b;}.cls-3{fill:#5d8758;}</style></defs><path class="cls-1" d="M221,42a160.88,160.88,0,0,1-19.5,3.73c-6.65.85-10.3,1.31-15.59,1.19-5.66-.14-7.19-.8-12.37-.34-7.52.66-10.61,2.63-12.2,3.9a16.38,16.38,0,0,0-3.73,4.23l-6.95,7-7.46,8.14-2.88,3.9v5.08l-3.05,2.37-1.7,1.7L135,87.06l.51,3.55-6.1,6.11-2.71,4.74.85,3.39,4.91,6.13.85,3.73,1.69,10,5.26,7.46v-9.66l-.17-4a7.36,7.36,0,0,1,0-2.06,9.3,9.3,0,0,1,3.39-5.6,14.61,14.61,0,0,1,2.88-1.86,14.81,14.81,0,0,1,2.71-1.19,11.06,11.06,0,0,1,5.76,0c1.69.4,3.89.92,5.26,2.72a29.45,29.45,0,0,1,.82,5.78c.41,4.65.65,10.81,0,13.37-.21.85-.42,1.54-.17,1.69.7.44,4.72-3.48,7-8.47a51.81,51.81,0,0,0,1.69-6.59c.81-3.83,1.57-8,1.7-9,4.21-1.5,5.59-.67,6.1-.16,2.21,2.2-1.37,9.14-3.39,13a30.78,30.78,0,0,1-5.26,7.79c-2.34,2.47-4.41,4.65-7.79,5.77-1.9.62-3.4.65-5.77,2a10.59,10.59,0,0,0-3.22,2.71,6.67,6.67,0,0,0-1.69,4.58c.19,2.06,6.55,5.46,7.11,6,2.28,2.08,8-3.61,8.48-4.45,19.21-23,27.41-32.2,29.32-33.53a4.27,4.27,0,0,0,1.7-1.89c.47-1.17.07-2.08,0-4.92,0-1.35-.08-1.48,0-1.69.58-1.6,3-1.89,4.74-2.37,4.52-1.25,3.84-3.63,9.16-6.11,2.07-1,5.92-2.75,9.83-1.35.83.3,3.32,1.19,4.23,3.56s-.11,5.55-2.71,7.79l-12.88,14.44" transform="translate(-97.76 -41.49)"/><path class="cls-1" d="M225,97.83l-4.86,3a78.69,78.69,0,0,0-12.16,8c-3.29,2.64-5.81,5.09-18.22,19.28-7.68,8.78-11.52,13.16-12.54,14.41-5,6.16-6.43,8.33-10.17,11.52a37.38,37.38,0,0,1-13.9,8.14c-3.2,1-11.54,3.48-19.32-.34-4.73-2.32-8.09-6.42-9.49-8.14-3.43-4.18-3.72-6.53-7.29-8.81a12.69,12.69,0,0,0-8.65-2.2,11,11,0,0,0-8,5.08c-1.17,2.1-1,3.91-1.19,3.9-.48,0-2.54-7.58,1.19-11.86,3.87-4.45,12.22-3.32,12.88-3.22,2.92.43,3.69,1.31,4.75.67,3-1.8,1.1-11.51-3-17.62a13.78,13.78,0,0,0-6.28-5.6c-2-.77-3.53-.63-3.56-1,0-.72,5.17-3,9.84-1.36,4.35,1.53,6.29,5.81,8,9.49a26,26,0,0,1,2.54,10.68c0,4-1,5.79,0,9.49a17.27,17.27,0,0,0,2.55,5.26,20,20,0,0,0,9,8,19.69,19.69,0,0,0,14.07.17,27.75,27.75,0,0,0,5.76-3.05,57.85,57.85,0,0,0,8.34-6.28l31.17-35.67" transform="translate(-97.76 -41.49)"/><line class="cls-1" x1="42.35" y1="74.89" x2="35.8" y2="74.6"/><line class="cls-1" x1="63.57" y1="74.6" x2="71.66" y2="74.74"/><path class="cls-1" d="M172.74,148a16,16,0,0,0,4.49,1.39c12.32,1.85,23.89-11.77,27.28-15.76,2.27-2.67,1.81-2.59,3.9-4.92,5.49-6.11,9-7,14.92-13.56,2.65-2.91,1.85-2.61,3.56-4.24,1.21-1.15,7.09-6.76,13.73-8.64a4.4,4.4,0,0,0,2.54-1.53c1.16-1.63.45-4,.17-4.91-1.69-5.57-9.22-8.45-10.68-9" transform="translate(-97.76 -41.49)"/><line class="cls-1" x1="79.47" y1="65.57" x2="99.74" y2="59.98"/><path class="cls-1" d="M210,78.07A68.09,68.09,0,0,1,222.28,74a69,69,0,0,1,20.65-1.53" transform="translate(-97.76 -41.49)"/><path class="cls-2" d="M167,95.7a5.32,5.32,0,0,0,2.41,0,22.54,22.54,0,0,0,5.17-4.22c1.67-2.25,1.47-2.41,2.48-3.65a23.52,23.52,0,0,1,3.72-3.35,20.1,20.1,0,0,1,4.66-3.21,10.22,10.22,0,0,1,3.94-1,21.27,21.27,0,0,0,3-.07,6.48,6.48,0,0,0,2-.44,6.81,6.81,0,0,0,2.48-2.19c1-1.18,1.25-1.88,1.38-1.82s.07,2.06-1.16,3.57c-.86,1-1.66,1.17-2,2.26a4.4,4.4,0,0,0-.07,1.9c.06,1.72-1,3.05-2.11,4.44A19.1,19.1,0,0,1,181,94.32a50.56,50.56,0,0,1-5.54.22,11,11,0,0,0-2.12-.08" transform="translate(-97.76 -41.49)"/><ellipse class="cls-1" cx="63.73" cy="61.72" rx="1.21" ry="0.53"/><ellipse class="cls-1" cx="35.75" cy="61.19" rx="1.21" ry="0.53"/><path class="cls-3" d="M172.74,93.38a3.7,3.7,0,0,0,1.64,0,15.06,15.06,0,0,0,3.54-2.89c1.14-1.53,1-1.64,1.69-2.49a16.52,16.52,0,0,1,2.54-2.29,14.09,14.09,0,0,1,3.19-2.19,6.81,6.81,0,0,1,2.69-.69,15,15,0,0,0,2,0,4.6,4.6,0,0,0,1.35-.3,4.68,4.68,0,0,0,1.69-1.5c.67-.8.85-1.28.95-1.24a3.2,3.2,0,0,1-.8,2.44c-.59.72-1.13.79-1.4,1.54a3.21,3.21,0,0,0-.05,1.3,4.74,4.74,0,0,1-1.44,3,13.07,13.07,0,0,1-8.07,4.39,34.19,34.19,0,0,1-3.78.15,6.25,6.25,0,0,0-1.45,0" transform="translate(-97.76 -41.49)"/></svg>